<svg width="84" height="14" viewBox="0 0 84 14" fill="none" xmlns="http://www.w3.org/2000/svg">
<path d="M40.672 11.4281L32.8999 0.935273C32.6492 0.684559 32.3056 0.563844 31.9713 0.591701C31.637 0.57313 31.2934 0.684559 31.0427 0.935273L23.2706 11.4281C22.797 11.9017 22.797 12.6724 23.2706 13.146C23.7442 13.6196 24.5149 13.6196 24.9884 13.146L31.9713 3.72099L38.9542 13.146C39.4277 13.6196 40.1984 13.6196 40.672 13.146C41.1456 12.6724 41.1456 11.9017 40.672 11.4281Z" fill="#1E1E1E"/>
<path d="M60.005 0.498779H44.5629C43.8943 0.498779 43.3464 1.04664 43.3464 1.71521C43.3464 2.38378 43.8943 2.93164 44.5629 2.93164H58.7886V12.2824C58.7886 12.9509 59.3364 13.4988 60.005 13.4988C60.6736 13.4988 61.2214 12.9509 61.2214 12.2824V1.71521C61.2214 1.04664 60.6736 0.498779 60.005 0.498779Z" fill="#1E1E1E"/>
<path d="M52.2792 6.40442C51.5735 6.40442 51.0071 6.97085 51.0071 7.67656C51.0071 8.38228 51.5735 8.9487 52.2792 8.9487C52.9849 8.9487 53.5514 8.38228 53.5514 7.67656C53.5514 6.97085 52.9849 6.40442 52.2792 6.40442Z" fill="#1E1E1E"/>
<path d="M83.507 2.65312C83.5627 2.59741 83.6092 2.53241 83.6556 2.46741C83.6742 2.43955 83.6835 2.41169 83.702 2.37455C83.7299 2.33741 83.7485 2.30026 83.767 2.25383C83.7856 2.21669 83.7949 2.17955 83.8042 2.13312C83.8135 2.09598 83.832 2.05883 83.832 2.02169C83.8506 1.94741 83.8506 1.87312 83.8599 1.79883C83.8599 1.79883 83.8599 1.79883 83.8599 1.78955C83.8599 1.78955 83.8599 1.78955 83.8599 1.78026C83.8599 1.70598 83.8506 1.63169 83.832 1.55741C83.832 1.52026 83.8135 1.49241 83.8042 1.45526C83.7949 1.40883 83.7856 1.37169 83.767 1.33455C83.7485 1.29741 83.7299 1.26026 83.7113 1.22312C83.6927 1.18598 83.6742 1.15812 83.6556 1.12098C83.6184 1.06526 83.5813 1.01883 83.5349 0.972406C83.5256 0.96312 83.5163 0.944549 83.507 0.935263C83.4885 0.925977 83.4792 0.916692 83.4606 0.89812C83.4142 0.860977 83.3677 0.814549 83.3213 0.786692C83.2842 0.758834 83.2377 0.740263 83.2006 0.721692C83.1727 0.70312 83.1449 0.684549 83.1077 0.675263C83.0613 0.656692 83.0056 0.63812 82.9592 0.628834C82.9313 0.628834 82.9127 0.610263 82.8849 0.600977C82.8013 0.582406 82.727 0.57312 82.6435 0.57312H67.7213C67.0527 0.57312 66.5049 1.11169 66.5049 1.78955C66.5049 2.46741 67.0527 3.00598 67.7213 3.00598H78.8363L66.867 11.4188C66.3935 11.8924 66.3935 12.6631 66.867 13.1367C67.3406 13.6103 68.1113 13.6103 68.5849 13.1367L83.1913 2.86669C83.312 2.81098 83.4142 2.73669 83.507 2.64383" fill="#1E1E1E"/>
<path d="M82.5972 10.9546C81.9008 10.9546 81.3251 11.521 81.3251 12.2267C81.3251 12.9324 81.8915 13.4989 82.5972 13.4989C83.3029 13.4989 83.8694 12.9324 83.8694 12.2267C83.8694 11.521 83.3029 10.9546 82.5972 10.9546Z" fill="#1E1E1E"/>
<path d="M17.9963 1.86377C17.9963 2.53234 17.4485 3.0802 16.7799 3.0802H1.34704C0.678472 3.0802 0.130615 2.53234 0.130615 1.86377C0.130615 1.1952 0.669187 0.647339 1.34704 0.647339H16.7892C17.4578 0.647339 18.0056 1.1952 18.0056 1.86377" fill="#1E1E1E"/>
<path d="M17.9963 12.2825C17.9963 12.951 17.4485 13.4989 16.7799 13.4989H1.34704C0.678472 13.4989 0.130615 12.951 0.130615 12.2825C0.130615 11.6139 0.669187 11.066 1.34704 11.066H16.7892C17.4578 11.066 18.0056 11.6139 18.0056 12.2825" fill="#1E1E1E"/>
<path d="M6.37998 7.101C6.37998 7.80671 5.81355 8.37314 5.10784 8.37314C4.40212 8.37314 3.83569 7.80671 3.83569 7.101C3.83569 6.39529 4.40212 5.82886 5.10784 5.82886C5.81355 5.82886 6.37998 6.39529 6.37998 7.101Z" fill="#1E1E1E"/>
<path d="M14.2914 7.101C14.2914 7.80671 13.7249 8.37314 13.0192 8.37314C12.3135 8.37314 11.7471 7.80671 11.7471 7.101C11.7471 6.39529 12.3135 5.82886 13.0192 5.82886C13.7249 5.82886 14.2914 6.39529 14.2914 7.101Z" fill="#1E1E1E"/>
</svg>
