<?xml version="1.0" encoding="UTF-8"?>
<svg id="_레이어_1" data-name="레이어_1" xmlns="http://www.w3.org/2000/svg" version="1.1" viewBox="0 0 32 32">
  <!-- Generator: Adobe Illustrator 29.5.1, SVG Export Plug-In . SVG Version: 2.1.0 Build 141)  -->
  <defs>
    <style>
      .st0 {
        fill: #888;
      }
    </style>
  </defs>
  <path class="st0" d="M8,20c0,.71-.28,1.39-.78,1.89-.5.5-1.18.78-1.89.78s-1.39-.28-1.89-.78c-.5-.5-.78-1.18-.78-1.89s.28-1.39.78-1.89c.5-.5,1.18-.78,1.89-.78h2.67v2.67ZM9.33,20c0-.71.28-1.39.78-1.89.5-.5,1.18-.78,1.89-.78s1.39.28,1.89.78c.5.5.78,1.18.78,1.89v6.67c0,.71-.28,1.39-.78,1.89-.5.5-1.18.78-1.89.78s-1.39-.28-1.89-.78c-.5-.5-.78-1.18-.78-1.89v-6.67ZM12,9.33c-.71,0-1.39-.28-1.89-.78-.5-.5-.78-1.18-.78-1.89s.28-1.39.78-1.89c.5-.5,1.18-.78,1.89-.78s1.39.28,1.89.78c.5.5.78,1.18.78,1.89v2.67h-2.67ZM12,10.67c.71,0,1.39.28,1.89.78s.78,1.18.78,1.89-.28,1.39-.78,1.89c-.5.5-1.18.78-1.89.78h-6.67c-.71,0-1.39-.28-1.89-.78-.5-.5-.78-1.18-.78-1.89s.28-1.39.78-1.89c.5-.5,1.18-.78,1.89-.78h6.67ZM22.67,13.33c0-.71.28-1.39.78-1.89.5-.5,1.18-.78,1.89-.78s1.39.28,1.89.78c.5.5.78,1.18.78,1.89s-.28,1.39-.78,1.89c-.5.5-1.18.78-1.89.78h-2.67v-2.67ZM21.33,13.33c0,.71-.28,1.39-.78,1.89-.5.5-1.18.78-1.89.78s-1.39-.28-1.89-.78c-.5-.5-.78-1.18-.78-1.89v-6.67c0-.71.28-1.39.78-1.89.5-.5,1.18-.78,1.89-.78s1.39.28,1.89.78c.5.5.78,1.18.78,1.89v6.67ZM18.67,24c.71,0,1.39.28,1.89.78.5.5.78,1.18.78,1.89s-.28,1.39-.78,1.89-1.18.78-1.89.78-1.39-.28-1.89-.78c-.5-.5-.78-1.18-.78-1.89v-2.67h2.67ZM18.67,22.67c-.71,0-1.39-.28-1.89-.78-.5-.5-.78-1.18-.78-1.89s.28-1.39.78-1.89c.5-.5,1.18-.78,1.89-.78h6.67c.71,0,1.39.28,1.89.78.5.5.78,1.18.78,1.89s-.28,1.39-.78,1.89c-.5.5-1.18.78-1.89.78h-6.67Z"/>
</svg>