<svg width="36" height="36" viewBox="0 0 36 36" fill="none" xmlns="http://www.w3.org/2000/svg">
<rect width="36" height="36" rx="18" fill="#212121"/>
<path d="M14 20H22V19.45C22 18.7167 21.6333 18.125 20.9 17.675C20.1667 17.225 19.2 17 18 17C16.8 17 15.8333 17.225 15.1 17.675C14.3667 18.125 14 18.7167 14 19.45V20ZM18 16C18.55 16 19.0208 15.8042 19.4125 15.4125C19.8042 15.0208 20 14.55 20 14C20 13.45 19.8042 12.9792 19.4125 12.5875C19.0208 12.1958 18.55 12 18 12C17.45 12 16.9792 12.1958 16.5875 12.5875C16.1958 12.9792 16 13.45 16 14C16 14.55 16.1958 15.0208 16.5875 15.4125C16.9792 15.8042 17.45 16 18 16ZM8 28V10C8 9.45 8.19583 8.97917 8.5875 8.5875C8.97917 8.19583 9.45 8 10 8H26C26.55 8 27.0208 8.19583 27.4125 8.5875C27.8042 8.97917 28 9.45 28 10V22C28 22.55 27.8042 23.0208 27.4125 23.4125C27.0208 23.8042 26.55 24 26 24H12L8 28ZM11.15 22H26V10H10V23.125L11.15 22Z" fill="white"/>
</svg>
