<?xml version="1.0" encoding="UTF-8"?>
<svg id="_레이어_1" data-name="레이어_1" xmlns="http://www.w3.org/2000/svg" version="1.1" xmlns:xlink="http://www.w3.org/1999/xlink" viewBox="0 0 79 18">
  <!-- Generator: Adobe Illustrator 29.5.1, SVG Export Plug-In . SVG Version: 2.1.0 Build 141)  -->
  <defs>
    <style>
      .st0, .st1 {
        fill: #fff;
      }

      .st2 {
        mask: url(#mask);
      }

      .st1, .st3 {
        fill-rule: evenodd;
      }

      .st3 {
        fill: #dc0a0a;
      }
    </style>
    <mask id="mask" x="0" y="0" width="78.6" height="18" maskUnits="userSpaceOnUse">
      <g id="mask0_860_1538">
        <rect class="st0" width="78.6" height="18"/>
      </g>
    </mask>
  </defs>
  <g class="st2">
    <g>
      <path class="st1" d="M10.96,13.1h-.02L3.93,1.8H0v16.2h3.46V6.47h.07l5.87,9.37c1.7,2.4,3.27,2.11,5,2.14V1.8h-3.44v11.3Z"/>
      <path class="st1" d="M25.75,8.62h-4.21c-1.4,0-2.1-.6-2.08-1.81.02-1.45.86-2.18,2.54-2.18h5.41s.05,0,.08,0h.02c2.59-.08,2.43-2.79,2.43-2.79v-.04h-8.45c-1.73,0-3.02.35-3.86,1.05-.96.79-1.43,2.06-1.43,3.83,0,3.12,1.68,4.68,5.05,4.68h3.75c.8,0,1.4.16,1.78.48.38.32.56.82.55,1.5-.01.74-.28,1.25-.79,1.53-.36.2-.94.3-1.73.3h-7.97v2.83h8.47c1.74,0,3.04-.35,3.88-1.05.95-.77,1.42-2.03,1.41-3.78-.02-1.97-.55-3.27-1.6-3.92-.67-.42-1.76-.63-3.25-.63Z"/>
      <path class="st3" d="M48.96,4.2c-.48,0-.94.06-1.37.19-1.1.33-1.98.87-2.64,1.65-.7-1.23-1.94-1.84-3.71-1.84-.86,0-1.71.21-2.52.63-.66.34-1.17.72-1.52,1.16v-1.45h-2.99v11.75c0,.5.16.91.47,1.23.32.32.73.48,1.25.48s.91-.16,1.23-.48c.32-.32.49-.73.49-1.23v-7.56c.05-.19.16-.39.33-.58.55-.76,1.3-1.13,2.27-1.13.26,0,.52.04.75.12.73.26,1.1.94,1.1,2.03v7.13c0,.5.16.91.47,1.23.32.32.73.48,1.25.48.18,0,.36-.03.55-.1.78-.23,1.17-.77,1.17-1.62v-7.56c.07-.19.17-.39.32-.58.57-.76,1.32-1.13,2.27-1.13.27,0,.51.04.75.12.73.26,1.1.94,1.1,2.03v7.13c0,.5.16.91.48,1.23.32.32.73.48,1.24.48s.93-.16,1.25-.48c.32-.32.47-.73.47-1.23v-7.56c0-1.5-.41-2.64-1.22-3.43-.75-.73-1.82-1.09-3.22-1.09Z"/>
      <path class="st3" d="M65.14,4.53l-.3.8c-.95-.76-2.81-1.13-4.25-1.13-1.92,0-3.49.6-4.69,1.81-1.27,1.29-1.9,3.04-1.9,5.27s.58,3.92,1.73,5.1c1.07,1.09,2.57,1.63,4.5,1.63h0s1.8,0,1.8,0c.85,0,1.54-.67,1.54-1.5,0-.83-.69-1.5-1.54-1.5h-.69c-1.46-.09-2.6-.45-3.11-1.11-.57-.72-.88-1.4-.88-2.74,0-.79.19-1.43.36-1.97.5-1.53,1.72-2.28,3.26-2.28.4,0,.76.05,1.08.14,1.04.33,2.22,1.12,2.22,2.39v6.87c0,.5.16.9.49,1.22.33.31.75.47,1.26.47.1,0,.21,0,.33-.02.97-.15,1.45-.7,1.45-1.67V4.53h-2.66Z"/>
      <path class="st3" d="M73.2,0v16.38c0,.75-.37,1.24-1.12,1.48-.24.09-.48.14-.73.14-.54,0-.97-.15-1.31-.46-.34-.3-.45-.69-.45-1.16V0h3.6Z"/>
      <path class="st3" d="M78.6,0v16.38c0,.75-.37,1.24-1.12,1.48-.24.09-.48.14-.73.14-.54,0-.97-.15-1.31-.46-.34-.3-.45-.69-.45-1.16V0h3.6Z"/>
    </g>
  </g>
</svg>